<svg id="Layer_1" data-name="Layer 1" xmlns="http://www.w3.org/2000/svg" xmlns:xlink="http://www.w3.org/1999/xlink" viewBox="0 0 226.01 72.33"><defs><style>.cls-1{fill:none;}.cls-2{fill:#7d868c;}.cls-3{clip-path:url(#clip-path);}.cls-4{fill:#8c2332;}.cls-5{fill:#8d2332;}.cls-6{fill:#8e2332;}.cls-7{fill:#8f2332;}.cls-8{fill:#902332;}.cls-9{fill:#912332;}.cls-10{fill:#922332;}.cls-11{fill:#932333;}.cls-12{fill:#942333;}.cls-13{fill:#952333;}.cls-14{fill:#962333;}.cls-15{fill:#972333;}.cls-16{fill:#982333;}.cls-17{fill:#992333;}.cls-18{fill:#9a2333;}.cls-19{fill:#9b2333;}.cls-20{fill:#9c2333;}.cls-21{fill:#9d2333;}.cls-22{fill:#9e2333;}.cls-23{fill:#9f2333;}.cls-24{fill:#a02333;}.cls-25{fill:#a12333;}.cls-26{fill:#a22333;}.cls-27{fill:#a32333;}.cls-28{fill:#a42333;}.cls-29{fill:#a52333;}.cls-30{fill:#a62333;}.cls-31{fill:#a72333;}.cls-32{fill:#a82333;}.cls-33{fill:#a92333;}.cls-34{fill:#aa2333;}.cls-35{fill:#ab2333;}.cls-36{fill:#ac2333;}.cls-37{fill:#ad2333;}.cls-38{fill:#ae2233;}.cls-39{fill:#af2233;}.cls-40{fill:#b02233;}.cls-41{fill:#b12233;}.cls-42{fill:#b22233;}.cls-43{fill:#b32233;}.cls-44{fill:#b42233;}.cls-45{fill:#b52233;}.cls-46{fill:#b62233;}.cls-47{fill:#b72233;}.cls-48{fill:#b82133;}.cls-49{fill:#b92133;}.cls-50{fill:#ba2133;}.cls-51{fill:#bb2133;}.cls-52{fill:#bd2133;}.cls-53{fill:#be2133;}.cls-54{fill:#bf2133;}.cls-55{fill:#c02032;}.cls-56{fill:#c12032;}.cls-57{fill:#c22032;}.cls-58{fill:#c32032;}.cls-59{fill:url(#linear-gradient);}.cls-60{fill:#fff;}.cls-61{fill:#a41f35;}</style><clipPath id="clip-path" transform="translate(-515.96 -359.83)"><rect class="cls-1" x="517.9" y="361.78" width="68.45" height="68.45"/></clipPath><linearGradient id="linear-gradient" x1="515.96" y1="396" x2="588.28" y2="396" gradientUnits="userSpaceOnUse"><stop offset="0" stop-color="#a9a3a1"/><stop offset="0.1" stop-color="#6c6361"/><stop offset="0.31" stop-color="#a9a3a1"/><stop offset="0.43" stop-color="#6c6361"/><stop offset="0.55" stop-color="#cecac8"/><stop offset="0.68" stop-color="#524b48"/><stop offset="0.84" stop-color="#d2cecd"/><stop offset="1" stop-color="#5f5654"/></linearGradient></defs><title>ua-college-of-engineering-cs-header</title><path class="cls-2" d="M610.6,370.42a3.84,3.84,0,0,0-1.85-.46,4.19,4.19,0,0,0-4.07,4.44c0,2.29,1.42,3.52,3.08,3.52a5.65,5.65,0,0,0,2.06-.41l0.35,0.79a6.58,6.58,0,0,1-2.55.57,4.12,4.12,0,0,1-4.28-4.41,5.45,5.45,0,0,1,5.59-5.45,3.73,3.73,0,0,1,2.28.74Z" transform="translate(-515.96 -359.83)"/><path class="cls-2" d="M617.44,374.7c0,2.15-1.43,4.17-3.45,4.17a2.8,2.8,0,0,1-2.77-3,3.92,3.92,0,0,1,3.68-4.14A2.7,2.7,0,0,1,617.44,374.7Zm-5,1.17c0,0.57.19,2.18,1.62,2.18s2.25-1.61,2.25-3.32c0-.49-0.05-2.18-1.47-2.18S612.4,374.24,612.4,375.88Z" transform="translate(-515.96 -359.83)"/><path class="cls-2" d="M618.24,378.71l1.88-10h1.1l-1.88,10h-1.1Z" transform="translate(-515.96 -359.83)"/><path class="cls-2" d="M621.31,378.71l1.88-10h1.1l-1.88,10h-1.1Z" transform="translate(-515.96 -359.83)"/><path class="cls-2" d="M629.24,378.19a5.49,5.49,0,0,1-2.67.68c-1.44,0-2.13-1-2.13-2.53,0-2,1.7-4.61,4.12-4.61a1.5,1.5,0,0,1,1.61,1.55c0,1.63-2.32,2.67-4.55,2.53-0.05.93,0.05,2.23,1.43,2.23a4.26,4.26,0,0,0,1.81-.54ZM629,373.5a0.82,0.82,0,0,0-.82-1,3.05,3.05,0,0,0-2.4,2.48C627.67,375.19,628.92,374.32,629,373.5Z" transform="translate(-515.96 -359.83)"/><path class="cls-2" d="M636.06,378.46c-0.49,2.6-2.15,3.65-3.82,3.65a3.89,3.89,0,0,1-2.4-.68l0.46-.8a3.3,3.3,0,0,0,2.07.61c1.27,0,2.22-.9,2.56-2.68l0.22-1.13,0,0a3.57,3.57,0,0,1-2.52,1.47c-1,0-1.91-1-1.91-2.51,0-2.48,1.7-4.63,3.8-4.63a1.77,1.77,0,0,1,1.51.93h0l0.12-.76h1.12Zm-1.58-5.91c-1.39,0-2.6,1.42-2.6,3.76,0,1,.42,1.64,1.14,1.64,1.1,0,2.56-1.5,2.77-4A1.38,1.38,0,0,0,634.48,372.55Z" transform="translate(-515.96 -359.83)"/><path class="cls-2" d="M642.86,378.19a5.49,5.49,0,0,1-2.67.68c-1.44,0-2.13-1-2.13-2.53,0-2,1.7-4.61,4.11-4.61a1.5,1.5,0,0,1,1.61,1.55c0,1.63-2.32,2.67-4.55,2.53-0.05.93,0.05,2.23,1.43,2.23a4.26,4.26,0,0,0,1.81-.54Zm-0.25-4.69a0.82,0.82,0,0,0-.82-1,3.05,3.05,0,0,0-2.4,2.48C641.3,375.19,642.55,374.32,642.62,373.5Z" transform="translate(-515.96 -359.83)"/><path class="cls-2" d="M654.37,374.7c0,2.15-1.43,4.17-3.45,4.17a2.8,2.8,0,0,1-2.77-3,3.92,3.92,0,0,1,3.68-4.14A2.7,2.7,0,0,1,654.37,374.7Zm-5,1.17c0,0.57.19,2.18,1.62,2.18s2.25-1.61,2.25-3.32c0-.49-0.05-2.18-1.47-2.18S649.32,374.24,649.32,375.88Z" transform="translate(-515.96 -359.83)"/><path class="cls-2" d="M655.29,378.71l1.15-6.09h-1l0.14-.72h1l0.15-.83c0.34-1.92,1.42-2.37,2.23-2.37a1.61,1.61,0,0,1,.9.29l-0.35.63a1.66,1.66,0,0,0-.57-0.09,1.1,1.1,0,0,0-1,1.16l-0.23,1.23h1.47l-0.14.72h-1.47l-1.14,6.09h-1.1Z" transform="translate(-515.96 -359.83)"/><path class="cls-2" d="M610.73,385.89h-5.18v4.72h5.08v1.46h-5.08v5.51h6.08V399h-8.1V384.43h7.21v1.46Z" transform="translate(-515.96 -359.83)"/><path class="cls-2" d="M615.55,389.9a5.22,5.22,0,0,1,3.57-1.55c2.4,0,3.7,1.34,3.7,4V399h-1.88v-6.33c0-2-.84-3-2.53-3a2.79,2.79,0,0,0-2.84,3V399h-1.88V388.6h1.86v1.29Z" transform="translate(-515.96 -359.83)"/><path class="cls-2" d="M634.77,398.67c0,4-2.49,5.6-5.31,5.6a8.22,8.22,0,0,1-4.3-1l0.52-1.23a7.06,7.06,0,0,0,3.74.94c2.15,0,3.47-1.38,3.47-4.12V397.4h0a4.17,4.17,0,0,1-3.49,1.9c-2.88,0-4.68-2.26-4.68-5.6a5.18,5.18,0,0,1,5-5.35,3.67,3.67,0,0,1,3.18,1.69h0V388.6h1.88v10.07Zm-1.88-5.18c0-2-1.07-3.8-3.11-3.8s-3.07,1.71-3.07,3.93,1,4.35,2.95,4.35C631.93,398,632.89,395.81,632.89,393.49Z" transform="translate(-515.96 -359.83)"/><path class="cls-2" d="M637.57,385.16a1.19,1.19,0,1,1,1.19,1.27A1.15,1.15,0,0,1,637.57,385.16Zm2.13,3.45V399h-1.88V388.6h1.88Z" transform="translate(-515.96 -359.83)"/><path class="cls-2" d="M644.65,389.9a5.22,5.22,0,0,1,3.57-1.55c2.4,0,3.7,1.34,3.7,4V399H650v-6.33c0-2-.83-3-2.53-3a2.79,2.79,0,0,0-2.84,3V399h-1.88V388.6h1.86v1.29Z" transform="translate(-515.96 -359.83)"/><path class="cls-2" d="M655.2,394a3.78,3.78,0,0,0,3.53,4,5.22,5.22,0,0,0,2.86-.9l0.54,1a6.29,6.29,0,0,1-3.47,1.21c-3.26,0-5.41-2-5.41-5.68a4.9,4.9,0,0,1,5-5.26c3.17,0,4.24,2.86,4,5.6h-7Zm5.33-1.25c0-1.63-.69-3-2.34-3a2.9,2.9,0,0,0-2.86,3h5.2Z" transform="translate(-515.96 -359.83)"/><path class="cls-2" d="M665.79,394a3.78,3.78,0,0,0,3.53,4,5.22,5.22,0,0,0,2.86-.9l0.54,1a6.29,6.29,0,0,1-3.47,1.21c-3.26,0-5.41-2-5.41-5.68a4.9,4.9,0,0,1,5-5.26c3.17,0,4.24,2.86,4,5.6h-7Zm5.33-1.25c0-1.63-.69-3-2.34-3a2.9,2.9,0,0,0-2.86,3h5.2Z" transform="translate(-515.96 -359.83)"/><path class="cls-2" d="M677,389.9l0.75-.79a2,2,0,0,1,3.3.27l-0.86,1.21a3.22,3.22,0,0,0-1.4-.44c-1,0-1.75,1-1.75,3.28V399h-1.88V388.6H677v1.29Z" transform="translate(-515.96 -359.83)"/><path class="cls-2" d="M682.17,385.16a1.19,1.19,0,1,1,1.19,1.27A1.15,1.15,0,0,1,682.17,385.16Zm2.13,3.45V399h-1.88V388.6h1.88Z" transform="translate(-515.96 -359.83)"/><path class="cls-2" d="M689.25,389.9a5.22,5.22,0,0,1,3.57-1.55c2.4,0,3.7,1.34,3.7,4V399h-1.88v-6.33c0-2-.83-3-2.53-3a2.79,2.79,0,0,0-2.84,3V399h-1.88V388.6h1.86v1.29Z" transform="translate(-515.96 -359.83)"/><path class="cls-2" d="M708.47,398.67c0,4-2.49,5.6-5.31,5.6a8.22,8.22,0,0,1-4.3-1l0.52-1.23a7.06,7.06,0,0,0,3.74.94c2.15,0,3.47-1.38,3.47-4.12V397.4h0a4.17,4.17,0,0,1-3.49,1.9c-2.88,0-4.68-2.26-4.68-5.6a5.18,5.18,0,0,1,5-5.35,3.67,3.67,0,0,1,3.17,1.69h0V388.6h1.88v10.07Zm-1.88-5.18c0-2-1.07-3.8-3.11-3.8s-3.07,1.71-3.07,3.93,1,4.35,2.95,4.35C705.63,398,706.59,395.81,706.59,393.49Z" transform="translate(-515.96 -359.83)"/><g class="cls-3"><rect class="cls-4" x="1.94" y="1.94" width="68.45" height="68.45"/><circle class="cls-4" cx="36.16" cy="36.16" r="34.22"/><circle class="cls-5" cx="36.16" cy="36.16" r="33.63"/><circle class="cls-5" cx="36.16" cy="36.16" r="33.05"/><circle class="cls-6" cx="36.16" cy="36.16" r="32.45"/><circle class="cls-7" cx="36.16" cy="36.16" r="31.86"/><circle class="cls-8" cx="36.16" cy="36.16" r="31.27"/><circle class="cls-9" cx="36.16" cy="36.16" r="30.68"/><circle class="cls-10" cx="36.16" cy="36.16" r="30.09"/><circle class="cls-11" cx="36.16" cy="36.16" r="29.5"/><circle class="cls-12" cx="36.16" cy="36.16" r="28.91"/><circle class="cls-13" cx="36.16" cy="36.16" r="28.32"/><circle class="cls-14" cx="36.16" cy="36.16" r="27.73"/><circle class="cls-15" cx="36.16" cy="36.16" r="27.15"/><circle class="cls-16" cx="36.16" cy="36.16" r="26.55"/><circle class="cls-17" cx="36.16" cy="36.16" r="25.96"/><circle class="cls-18" cx="36.16" cy="36.16" r="25.37"/><circle class="cls-18" cx="36.16" cy="36.16" r="24.78"/><circle class="cls-19" cx="36.16" cy="36.16" r="24.19"/><circle class="cls-20" cx="36.16" cy="36.16" r="23.6"/><circle class="cls-21" cx="36.16" cy="36.16" r="23.01"/><circle class="cls-22" cx="36.16" cy="36.16" r="22.42"/><circle class="cls-23" cx="36.16" cy="36.16" r="21.83"/><circle class="cls-24" cx="36.16" cy="36.16" r="21.24"/><circle class="cls-25" cx="36.16" cy="36.16" r="20.65"/><circle class="cls-26" cx="36.16" cy="36.16" r="20.06"/><circle class="cls-27" cx="36.16" cy="36.16" r="19.47"/><circle class="cls-28" cx="36.16" cy="36.16" r="18.88"/><circle class="cls-29" cx="36.16" cy="36.16" r="18.29"/><circle class="cls-30" cx="36.16" cy="36.16" r="17.7"/><circle class="cls-31" cx="36.16" cy="36.16" r="17.11"/><circle class="cls-32" cx="36.16" cy="36.16" r="16.52"/><circle class="cls-33" cx="36.16" cy="36.16" r="15.93"/><circle class="cls-34" cx="36.16" cy="36.16" r="15.34"/><circle class="cls-35" cx="36.16" cy="36.16" r="14.75"/><circle class="cls-36" cx="36.16" cy="36.16" r="14.16"/><circle class="cls-37" cx="36.16" cy="36.16" r="13.57"/><circle class="cls-38" cx="36.16" cy="36.16" r="12.98"/><circle class="cls-39" cx="36.16" cy="36.16" r="12.39"/><circle class="cls-40" cx="36.16" cy="36.16" r="11.8"/><circle class="cls-41" cx="36.16" cy="36.16" r="11.21"/><circle class="cls-42" cx="36.16" cy="36.16" r="10.62"/><circle class="cls-43" cx="36.16" cy="36.16" r="10.03"/><circle class="cls-44" cx="36.16" cy="36.16" r="9.44"/><circle class="cls-45" cx="36.16" cy="36.16" r="8.85"/><circle class="cls-45" cx="36.16" cy="36.16" r="8.26"/><circle class="cls-46" cx="36.16" cy="36.16" r="7.67"/><circle class="cls-47" cx="36.16" cy="36.16" r="7.08"/><circle class="cls-48" cx="36.16" cy="36.16" r="6.49"/><circle class="cls-49" cx="36.16" cy="36.16" r="5.9"/><circle class="cls-50" cx="36.16" cy="36.16" r="5.31"/><circle class="cls-51" cx="36.16" cy="36.16" r="4.72"/><circle class="cls-52" cx="36.16" cy="36.16" r="4.13"/><circle class="cls-53" cx="36.16" cy="36.16" r="3.54"/><circle class="cls-54" cx="36.16" cy="36.16" r="2.95"/><circle class="cls-55" cx="36.16" cy="36.16" r="2.36"/><circle class="cls-56" cx="36.16" cy="36.16" r="1.77"/><circle class="cls-57" cx="36.16" cy="36.16" r="1.18"/><circle class="cls-58" cx="36.16" cy="36.16" r="0.59"/></g><path class="cls-59" d="M586.34,432.16H517.9a1.94,1.94,0,0,1-1.94-1.94V361.78a1.94,1.94,0,0,1,1.94-1.94h68.45a1.94,1.94,0,0,1,1.94,1.94v68.45A1.94,1.94,0,0,1,586.34,432.16Zm-66.51-3.88H584.4V363.72H519.84v64.57Z" transform="translate(-515.96 -359.83)"/><path class="cls-60" d="M586.34,430.58H517.9a0.36,0.36,0,0,1-.36-0.36V361.78a0.36,0.36,0,0,1,.36-0.36h68.45a0.36,0.36,0,0,1,.36.36v68.45A0.36,0.36,0,0,1,586.34,430.58Zm-68.09-.72H586V362.14H518.26v67.73Z" transform="translate(-515.96 -359.83)"/><path class="cls-60" d="M576.64,414.43c-4.52,2.33-7.92,1.85-8.28-1a51.45,51.45,0,0,1,0-9.28c0.05-.62.24-2.62,0.36-3.22,1.54-.32,3.61-1.08,3.61,1.61a5,5,0,0,0,2.46-2.82c1.36-6.44-5.39-4.75-5.39-4.75,1.65-7.61,3.42-15.71,7.19-22.4l-3.76-1.8c-2.54,1.95-5.1,3.92-7.24,4.24-2,.47-13.88,1.41-13-4.05-1.33.11-2.08,1.67-2.07,3,0.43,5.89,8.09,4.72,12.75,5.3A161.93,161.93,0,0,0,550.33,398c-3,.58-3.43-3.18-2.91-4.21a4.48,4.48,0,0,0-2.77,2.75c-0.94,2.3.12,6.19,3.38,6.4-3.23,5.68-7.09,15-15,13.12-2.65-.55-5.74-5-4.14-7.7,1-1.37-.47-2.32-2.14-0.3-4.11,4.53-.15,13.59,8.46,13,9.25,0.2,15.5-11.3,18.86-18.13l8.77-1.38-0.56,7.16c-1.11,17.8,11.71,10.93,11.71,10.93,1.78-.81,3.65-2.76,3.6-5C577.49,413.91,577.06,414.21,576.64,414.43Zm-13.06-18.14-6.64.81c3.31-5.29,5.12-10.19,10.45-15.56C565.92,386.23,564.72,391.55,563.58,396.28Z" transform="translate(-515.96 -359.83)"/><path class="cls-60" d="M578.45,418.23a1.15,1.15,0,1,0,1.15,1.15A1.15,1.15,0,0,0,578.45,418.23Zm0,2a0.9,0.9,0,1,1,.9-0.9A0.9,0.9,0,0,1,578.45,420.27Z" transform="translate(-515.96 -359.83)"/><path class="cls-60" d="M578.92,419.11a0.39,0.39,0,0,0-.39-0.39H578V420h0.24V419.5h0.18l0.25,0.53h0.27l-0.26-.55A0.39,0.39,0,0,0,578.92,419.11Zm-0.39.14h-0.31V419h0.31A0.14,0.14,0,1,1,578.53,419.25Z" transform="translate(-515.96 -359.83)"/><path class="cls-61" d="M612.16,423.49a5.26,5.26,0,0,1-3.2.91c-3.34,0-5.83-2.59-5.83-7.14,0-4.21,2.27-7.18,5.87-7.18a5,5,0,0,1,3.26,1.07l-0.75,1.52a4,4,0,0,0-2.29-.77c-2.1,0-3.42,1.84-3.42,5.32s1.33,5.36,3.48,5.36a3.86,3.86,0,0,0,2.31-.65Z" transform="translate(-515.96 -359.83)"/><path class="cls-61" d="M613.07,419.14c0-2.33,1.38-5.1,4.29-5.1s4.29,2.77,4.29,5.1c0,2.75-1.54,5.26-4.29,5.26S613.07,421.89,613.07,419.14Zm6.05,0c0-2.91-.83-3.86-1.76-3.86s-1.76,1.11-1.76,3.86c0,2.43.53,3.94,1.76,3.94S619.12,421.65,619.12,419.18Z" transform="translate(-515.96 -359.83)"/><path class="cls-61" d="M634,424.16v-5.62a4.25,4.25,0,0,0-.47-2.55,0.93,0.93,0,0,0-.73-0.3,1.24,1.24,0,0,0-.95.4,3.93,3.93,0,0,0-.61,2.49v5.58h-2.43v-5.56a5.05,5.05,0,0,0-.44-2.59,0.91,0.91,0,0,0-.73-0.32,1.12,1.12,0,0,0-.87.38,3.65,3.65,0,0,0-.73,2.55v5.54h-2.43v-9.89H626v1.34a2.77,2.77,0,0,1,2.43-1.58,2.26,2.26,0,0,1,2.41,1.74,3,3,0,0,1,2.57-1.74,2.65,2.65,0,0,1,2.71,1.76,8.11,8.11,0,0,1,.28,2.55v5.81H634Z" transform="translate(-515.96 -359.83)"/><path class="cls-61" d="M641.3,423v6.13h-2.43V414.27h2.43v1.27a2.31,2.31,0,0,1,2.27-1.5c1.84,0,3.72,1.56,3.72,5s-1.78,5.36-3.64,5.36A2.5,2.5,0,0,1,641.3,423Zm3.38-3.88c0-2.27-.49-3.66-1.64-3.66s-1.76,1.48-1.76,3.88S641.91,423,643,423C644.29,423,644.68,421.18,644.68,419.1Z" transform="translate(-515.96 -359.83)"/><path class="cls-61" d="M654.43,424.16v-1.3a2.91,2.91,0,0,1-4.41.89c-0.73-.69-1-2.06-1-3.86v-5.62h2.43v5.58a4.27,4.27,0,0,0,.45,2.43,1.14,1.14,0,0,0,.95.46,1.53,1.53,0,0,0,1.31-1,6.2,6.2,0,0,0,.24-2.18v-5.32h2.43v9.89h-2.43Z" transform="translate(-515.96 -359.83)"/><path class="cls-61" d="M664.55,423.79a4.88,4.88,0,0,1-2.31.61,2.34,2.34,0,0,1-2.21-1.13,4.62,4.62,0,0,1-.42-2.51v-5.22h-1.17v-1.27h1.17v-2.39l2.41-.57v3h2.16v1.27H662v4.59c0,2.12.26,2.81,1.11,2.81a1.94,1.94,0,0,0,1-.32Z" transform="translate(-515.96 -359.83)"/><path class="cls-61" d="M672.48,423.49a5.47,5.47,0,0,1-3.14.91,3.82,3.82,0,0,1-2.91-1.15A5.93,5.93,0,0,1,665,419a5.3,5.3,0,0,1,1.33-3.84A3.68,3.68,0,0,1,669.1,414a2.93,2.93,0,0,1,2.33.93,5.55,5.55,0,0,1,1.11,3.74c0,0.18,0,.46,0,0.63h-5c0,2.33.79,3.46,2.25,3.46a3.71,3.71,0,0,0,2-.61Zm-2-5.58c0-1.58-.32-2.63-1.36-2.63s-1.42.95-1.5,2.83h2.87v-0.2Z" transform="translate(-515.96 -359.83)"/><path class="cls-61" d="M679.75,416.59a1.8,1.8,0,0,0-1.15-.37c-0.89,0-1.33.95-1.46,1.88a18.31,18.31,0,0,0-.08,2.08v4h-2.43v-9.89h2.43v1.66a2.73,2.73,0,0,1,.12-0.38,2,2,0,0,1,1.68-1.52,2.63,2.63,0,0,1,1.68.81Z" transform="translate(-515.96 -359.83)"/><path class="cls-61" d="M688.77,424.4a5.32,5.32,0,0,1-3.46-1.13l0.85-1.52a3.33,3.33,0,0,0,2.21,1,2,2,0,0,0,1.9-2,2.77,2.77,0,0,0-.71-1.84c-0.71-.87-1.84-1.92-2.59-2.77a3.83,3.83,0,0,1-1.13-2.65c0-1.9,1.4-3.38,3.84-3.38a4.17,4.17,0,0,1,2.79,1l-0.81,1.4a2.57,2.57,0,0,0-1.74-.71,1.47,1.47,0,0,0-1.5,1.58,2.47,2.47,0,0,0,.75,1.62c0.67,0.77,1.94,2,2.57,2.75a4.23,4.23,0,0,1,1.09,2.79A3.82,3.82,0,0,1,688.77,424.4Z" transform="translate(-515.96 -359.83)"/><path class="cls-61" d="M701.46,423.57a4.63,4.63,0,0,1-2.75.83c-2.63,0-4.55-2.12-4.55-5.14s2.08-5.22,4.75-5.22a3.89,3.89,0,0,1,2.47.83l-0.69,1.23a2.46,2.46,0,0,0-1.48-.46c-1.54,0-2.49,1.25-2.49,3.54s1,3.62,2.51,3.62a2.9,2.9,0,0,0,1.54-.5Z" transform="translate(-515.96 -359.83)"/><path class="cls-61" d="M702.72,411.21a1.39,1.39,0,0,1,1.38-1.44,1.41,1.41,0,0,1,1.4,1.44,1.39,1.39,0,0,1-1.4,1.42A1.37,1.37,0,0,1,702.72,411.21Zm0.18,13v-9.89h2.43v9.89H702.9Z" transform="translate(-515.96 -359.83)"/><path class="cls-61" d="M714.67,423.49a5.47,5.47,0,0,1-3.14.91,3.82,3.82,0,0,1-2.91-1.15,5.93,5.93,0,0,1-1.38-4.25,5.3,5.3,0,0,1,1.33-3.84,3.68,3.68,0,0,1,2.73-1.13,2.93,2.93,0,0,1,2.33.93,5.55,5.55,0,0,1,1.11,3.74c0,0.18,0,.46,0,0.63h-5c0,2.33.79,3.46,2.25,3.46a3.71,3.71,0,0,0,2-.61Zm-2-5.58c0-1.58-.32-2.63-1.36-2.63s-1.42.95-1.5,2.83h2.87v-0.2Z" transform="translate(-515.96 -359.83)"/><path class="cls-61" d="M722.14,424.16v-5.62a4.2,4.2,0,0,0-.44-2.41,1.27,1.27,0,0,0-1-.45,1.49,1.49,0,0,0-1.29,1,5.83,5.83,0,0,0-.24,2v5.46h-2.43v-9.89h2.43v1.38a2.56,2.56,0,0,1,2.47-1.62,2.78,2.78,0,0,1,2,.65c0.81,0.73.95,2.06,0.95,3.86v5.62h-2.43Z" transform="translate(-515.96 -359.83)"/><path class="cls-61" d="M733.65,423.57a4.62,4.62,0,0,1-2.75.83c-2.63,0-4.55-2.12-4.55-5.14s2.08-5.22,4.75-5.22a3.89,3.89,0,0,1,2.47.83l-0.69,1.23a2.46,2.46,0,0,0-1.48-.46c-1.54,0-2.49,1.25-2.49,3.54s1,3.62,2.51,3.62a2.9,2.9,0,0,0,1.54-.5Z" transform="translate(-515.96 -359.83)"/><path class="cls-61" d="M741.91,423.49a5.47,5.47,0,0,1-3.14.91,3.82,3.82,0,0,1-2.91-1.15,5.93,5.93,0,0,1-1.38-4.25,5.3,5.3,0,0,1,1.33-3.84,3.68,3.68,0,0,1,2.73-1.13,2.93,2.93,0,0,1,2.33.93A5.55,5.55,0,0,1,742,418.7c0,0.18,0,.46,0,0.63h-5c0,2.33.79,3.46,2.25,3.46a3.71,3.71,0,0,0,2-.61Zm-2-5.58c0-1.58-.32-2.63-1.37-2.63s-1.42.95-1.5,2.83h2.87v-0.2Z" transform="translate(-515.96 -359.83)"/></svg>